<svg xmlns="http://www.w3.org/2000/svg" viewBox="0 0 1002 367"><defs><style>.a{fill:#606060;}.b{fill:#555c60;stroke:#555c60;stroke-miterlimit:10;stroke-width:0.68px;}.c{fill:#fff;}.d{fill:#73a89f;}.e{fill:#d394b7;}.f{fill:#9980d1;}.g{fill:#adad42;}.h{fill:#6fa3c6;}.i{fill:#ce8142;}</style></defs><path class="a" d="M332.48,358.52V332.66h8.45q4.21,0,6.33,1.74a6.27,6.27,0,0,1,2.13,5.15,5.3,5.3,0,0,1-1,3.21,6.74,6.74,0,0,1-2.81,2.16,6,6,0,0,1,3.31,2.22,6.42,6.42,0,0,1,1.22,3.92,6.9,6.9,0,0,1-2.26,5.47,9.35,9.35,0,0,1-6.37,2Zm3.41-14.83H341a5.4,5.4,0,0,0,3.58-1.12,3.77,3.77,0,0,0,1.34-3,3.7,3.7,0,0,0-1.25-3.11,6,6,0,0,0-3.78-1h-5Zm0,2.73v9.31h5.63a5.41,5.41,0,0,0,3.75-1.23,4.35,4.35,0,0,0,1.38-3.41q0-4.66-5.08-4.67Z"/><path class="a" d="M369.13,358.87a8.39,8.39,0,0,1-6.36-2.56,9.55,9.55,0,0,1-2.45-6.87v-.6a11.52,11.52,0,0,1,1.09-5.11,8.57,8.57,0,0,1,3-3.51,7.67,7.67,0,0,1,4.26-1.27,7.16,7.16,0,0,1,5.82,2.47c1.39,1.64,2.08,4,2.08,7.06v1.37h-13a6.82,6.82,0,0,0,1.66,4.59,5.21,5.21,0,0,0,4,1.75,5.75,5.75,0,0,0,2.95-.71,7.41,7.41,0,0,0,2.12-1.88l2,1.56A8,8,0,0,1,369.13,358.87Zm-.41-17.22a4.39,4.39,0,0,0-3.34,1.44,7,7,0,0,0-1.67,4.06h9.63v-.25A6.32,6.32,0,0,0,372,343,4.16,4.16,0,0,0,368.72,341.65Z"/><path class="a" d="M390.06,355.84H401.3v2.68H386V356.1L396.65,342H386.2V339.3h14.57v2.33Z"/><path class="a" d="M411.56,334.21a2,2,0,0,1,.48-1.35,1.83,1.83,0,0,1,1.45-.55,1.86,1.86,0,0,1,1.46.55,1.92,1.92,0,0,1,.49,1.35,1.89,1.89,0,0,1-.49,1.33,1.92,1.92,0,0,1-1.46.53,1.9,1.9,0,0,1-1.45-.53A1.92,1.92,0,0,1,411.56,334.21Zm3.55,24.31h-3.29V339.3h3.29Z"/><path class="a" d="M434.88,358.87a8.38,8.38,0,0,1-6.35-2.56,9.5,9.5,0,0,1-2.45-6.87v-.6a11.52,11.52,0,0,1,1.09-5.11,8.5,8.5,0,0,1,3.05-3.51,7.67,7.67,0,0,1,4.26-1.27,7.19,7.19,0,0,1,5.82,2.47c1.39,1.64,2.08,4,2.08,7.06v1.37h-13a6.82,6.82,0,0,0,1.66,4.59,5.21,5.21,0,0,0,4,1.75,5.78,5.78,0,0,0,2.95-.71,7.37,7.37,0,0,0,2.11-1.88l2,1.56A8.06,8.06,0,0,1,434.88,358.87Zm-.4-17.22a4.39,4.39,0,0,0-3.34,1.44,7,7,0,0,0-1.67,4.06h9.62v-.25a6.2,6.2,0,0,0-1.35-3.88A4.13,4.13,0,0,0,434.48,341.65Z"/><path class="a" d="M456.29,358.52H453V331.24h3.28Z"/><path class="a" d="M468.11,334.21a2,2,0,0,1,.49-1.35,1.83,1.83,0,0,1,1.45-.55,1.87,1.87,0,0,1,1.46.55,1.92,1.92,0,0,1,.49,1.35,1.89,1.89,0,0,1-.49,1.33,1.93,1.93,0,0,1-1.46.53,1.9,1.9,0,0,1-1.45-.53A1.93,1.93,0,0,1,468.11,334.21Zm3.56,24.31h-3.29V339.3h3.29Z"/><path class="a" d="M486.58,339.3l.1,2.42a7,7,0,0,1,5.76-2.77q6.09,0,6.14,6.87v12.7H495.3V345.8a4.47,4.47,0,0,0-.95-3.07,3.84,3.84,0,0,0-2.91-1,4.71,4.71,0,0,0-2.8.85,5.74,5.74,0,0,0-1.89,2.24v13.69h-3.28V339.3Z"/><path class="a" d="M509.3,348.75a11.28,11.28,0,0,1,2.08-7.15,7.17,7.17,0,0,1,11-.17l.16-2.13h3v18.76a7.78,7.78,0,0,1-2.21,5.87,8.12,8.12,0,0,1-5.94,2.15,10,10,0,0,1-4.07-.88,7.09,7.09,0,0,1-3-2.44l1.7-2a6.43,6.43,0,0,0,5.17,2.61,5,5,0,0,0,3.74-1.35,5.16,5.16,0,0,0,1.34-3.8V356.6a6.73,6.73,0,0,1-5.38,2.27,6.56,6.56,0,0,1-5.46-2.71A11.9,11.9,0,0,1,509.3,348.75Zm3.3.37a8.61,8.61,0,0,0,1.34,5.11,4.31,4.31,0,0,0,3.73,1.86,4.82,4.82,0,0,0,4.56-2.83v-8.77a4.87,4.87,0,0,0-4.53-2.75A4.37,4.37,0,0,0,514,343.6,9.36,9.36,0,0,0,512.6,349.12Z"/><path class="a" d="M573,346.42a16.05,16.05,0,0,1-1.28,6.64,9.64,9.64,0,0,1-3.62,4.32,10,10,0,0,1-14.56-4.29,15.43,15.43,0,0,1-1.34-6.43v-1.87a15.72,15.72,0,0,1,1.3-6.59,9.86,9.86,0,0,1,3.67-4.37,9.75,9.75,0,0,1,5.42-1.52,10,10,0,0,1,5.48,1.5,9.65,9.65,0,0,1,3.65,4.35,16.1,16.1,0,0,1,1.28,6.63Zm-3.39-1.66q0-4.61-1.85-7.06a6.58,6.58,0,0,0-10.26,0,11.42,11.42,0,0,0-1.91,6.82v1.9a11.6,11.6,0,0,0,1.88,7,6.56,6.56,0,0,0,10.27.14q1.82-2.4,1.87-6.9Z"/><path class="a" d="M587.24,339.3l.11,2.42A7,7,0,0,1,593.1,339q6.09,0,6.15,6.87v12.7H596V345.8a4.42,4.42,0,0,0-1-3.07,3.81,3.81,0,0,0-2.9-1,4.74,4.74,0,0,0-2.81.85,5.8,5.8,0,0,0-1.88,2.24v13.69h-3.29V339.3Z"/><path class="a" d="M615.2,334.65v4.65h3.59v2.54H615.2v11.93a2.69,2.69,0,0,0,.48,1.74,2.05,2.05,0,0,0,1.64.58,8.17,8.17,0,0,0,1.56-.22v2.65a9.38,9.38,0,0,1-2.52.35,4.07,4.07,0,0,1-3.32-1.33,5.7,5.7,0,0,1-1.12-3.78V341.84h-3.5V339.3h3.5v-4.65Z"/><path class="a" d="M646.19,354l3.69-14.69h3.28l-5.59,19.22h-2.66L640.24,344l-4.55,14.56H633l-5.58-19.22h3.27l3.78,14.39L639,339.3h2.64Z"/><path class="a" d="M663.07,334.21a1.92,1.92,0,0,1,.49-1.35,1.8,1.8,0,0,1,1.44-.55,1.86,1.86,0,0,1,1.46.55,1.93,1.93,0,0,1,.5,1.35,1.89,1.89,0,0,1-.5,1.33,1.92,1.92,0,0,1-1.46.53,1.86,1.86,0,0,1-1.44-.53A1.89,1.89,0,0,1,663.07,334.21Zm3.55,24.31h-3.29V339.3h3.29Z"/><path class="a" d="M683.78,349.62l-2.06,2.15v6.75h-3.28V331.24h3.28v16.5l1.76-2.11,6-6.33h4l-7.47,8,8.34,11.19h-3.85Z"/><path class="a" d="M708.76,349.62l-2.06,2.15v6.75h-3.28V331.24h3.28v16.5l1.76-2.11,6-6.33h4l-7.47,8,8.34,11.19h-3.85Z"/><path class="a" d="M736,358.87a8.42,8.42,0,0,1-6.36-2.56,9.55,9.55,0,0,1-2.45-6.87v-.6a11.66,11.66,0,0,1,1.09-5.11,8.52,8.52,0,0,1,3.06-3.51,7.64,7.64,0,0,1,4.25-1.27,7.2,7.2,0,0,1,5.83,2.47c1.38,1.64,2.07,4,2.07,7.06v1.37h-13a6.77,6.77,0,0,0,1.66,4.59,5.2,5.2,0,0,0,4,1.75,5.78,5.78,0,0,0,3-.71,7.5,7.5,0,0,0,2.11-1.88l2,1.56A8.06,8.06,0,0,1,736,358.87Zm-.41-17.22a4.4,4.4,0,0,0-3.34,1.44,7.1,7.1,0,0,0-1.67,4.06h9.63v-.25a6.32,6.32,0,0,0-1.35-3.88A4.16,4.16,0,0,0,735.59,341.65Z"/><path class="a" d="M757.41,358.52h-3.29V331.24h3.29Z"/><path class="a" d="M769.23,334.21a1.92,1.92,0,0,1,.49-1.35,1.82,1.82,0,0,1,1.45-.55,1.85,1.85,0,0,1,1.45.55,1.93,1.93,0,0,1,.5,1.35,1.95,1.95,0,1,1-3.89,0Zm3.55,24.31H769.5V339.3h3.28Z"/><path class="a" d="M787.69,339.3l.11,2.42a7,7,0,0,1,5.75-2.77q6.09,0,6.15,6.87v12.7h-3.29V345.8a4.42,4.42,0,0,0-.95-3.07,3.81,3.81,0,0,0-2.9-1,4.74,4.74,0,0,0-2.81.85,5.8,5.8,0,0,0-1.88,2.24v13.69h-3.29V339.3Z"/><path class="a" d="M810.42,348.75a11.34,11.34,0,0,1,2.07-7.15,7.18,7.18,0,0,1,11-.17l.16-2.13h3v18.76a7.82,7.82,0,0,1-2.21,5.87,8.15,8.15,0,0,1-5.94,2.15,9.92,9.92,0,0,1-4.07-.88,7.07,7.07,0,0,1-3-2.44l1.71-2a6.43,6.43,0,0,0,5.17,2.61,5,5,0,0,0,3.73-1.35,5.12,5.12,0,0,0,1.34-3.8V356.6a6.72,6.72,0,0,1-5.38,2.27,6.56,6.56,0,0,1-5.46-2.71A11.9,11.9,0,0,1,810.42,348.75Zm3.3.37a8.61,8.61,0,0,0,1.33,5.11,4.33,4.33,0,0,0,3.73,1.86,4.82,4.82,0,0,0,4.56-2.83v-8.77a4.84,4.84,0,0,0-4.52-2.75,4.37,4.37,0,0,0-3.75,1.86A9.36,9.36,0,0,0,813.72,349.12Z"/><path class="a" d="M861.83,347a16,16,0,0,1-6.38-3.1,5.91,5.91,0,0,1-2-4.53,6.27,6.27,0,0,1,2.44-5.06,9.73,9.73,0,0,1,6.35-2,10.53,10.53,0,0,1,4.75,1,7.72,7.72,0,0,1,3.23,2.84,7.23,7.23,0,0,1,1.15,4h-3.43a4.75,4.75,0,0,0-1.49-3.7,6.07,6.07,0,0,0-4.21-1.35,6.21,6.21,0,0,0-3.93,1.12,3.71,3.71,0,0,0-1.42,3.08,3.33,3.33,0,0,0,1.35,2.68,13,13,0,0,0,4.56,2,21.19,21.19,0,0,1,5,2,7.58,7.58,0,0,1,2.7,2.55,6.46,6.46,0,0,1,.88,3.43,6,6,0,0,1-2.45,5,10.45,10.45,0,0,1-6.55,1.89,12.11,12.11,0,0,1-5-1,8.44,8.44,0,0,1-3.57-2.79,6.88,6.88,0,0,1-1.25-4h3.43a4.47,4.47,0,0,0,1.73,3.71,7.35,7.35,0,0,0,4.63,1.36,6.67,6.67,0,0,0,4.14-1.11,3.58,3.58,0,0,0,1.43-3,3.52,3.52,0,0,0-1.33-2.94A15.59,15.59,0,0,0,861.83,347Z"/><path class="a" d="M893.68,356.62a7,7,0,0,1-5.63,2.25,6,6,0,0,1-4.68-1.78,7.72,7.72,0,0,1-1.62-5.28V339.3H885v12.42q0,4.36,3.55,4.37,3.76,0,5-2.81v-14h3.29v19.22h-3.13Z"/><path class="a" d="M916.12,356.19a4.74,4.74,0,0,0,3.08-1.06,3.75,3.75,0,0,0,1.45-2.67h3.11a6,6,0,0,1-1.14,3.15,7.64,7.64,0,0,1-2.79,2.38,8.11,8.11,0,0,1-3.71.88,7.92,7.92,0,0,1-6.24-2.62,10.43,10.43,0,0,1-2.32-7.16v-.55a11.65,11.65,0,0,1,1-5,7.85,7.85,0,0,1,3-3.39,8.37,8.37,0,0,1,4.56-1.21,7.71,7.71,0,0,1,5.37,1.93,7,7,0,0,1,2.28,5h-3.11a4.49,4.49,0,0,0-1.41-3.06,4.39,4.39,0,0,0-3.13-1.2,4.59,4.59,0,0,0-3.88,1.8,8.44,8.44,0,0,0-1.38,5.21v.62a8.26,8.26,0,0,0,1.37,5.12A4.62,4.62,0,0,0,916.12,356.19Z"/><path class="a" d="M941.71,356.19a4.73,4.73,0,0,0,3.07-1.06,3.76,3.76,0,0,0,1.46-2.67h3.1a6,6,0,0,1-1.13,3.15,7.59,7.59,0,0,1-2.8,2.38,8.09,8.09,0,0,1-3.7.88,7.92,7.92,0,0,1-6.25-2.62,10.43,10.43,0,0,1-2.31-7.16v-.55a11.5,11.5,0,0,1,1-5,7.76,7.76,0,0,1,3-3.39,8.39,8.39,0,0,1,4.56-1.21,7.71,7.71,0,0,1,5.37,1.93,6.89,6.89,0,0,1,2.28,5h-3.1a4.54,4.54,0,0,0-1.42-3.06,4.37,4.37,0,0,0-3.13-1.2,4.6,4.6,0,0,0-3.88,1.8,8.44,8.44,0,0,0-1.38,5.21v.62a8.32,8.32,0,0,0,1.37,5.12A4.63,4.63,0,0,0,941.71,356.19Z"/><path class="a" d="M967.56,358.87a8.39,8.39,0,0,1-6.36-2.56,9.55,9.55,0,0,1-2.45-6.87v-.6a11.52,11.52,0,0,1,1.09-5.11,8.52,8.52,0,0,1,3.06-3.51,7.62,7.62,0,0,1,4.25-1.27,7.16,7.16,0,0,1,5.82,2.47c1.39,1.64,2.08,4,2.08,7.06v1.37H962a6.87,6.87,0,0,0,1.66,4.59,5.21,5.21,0,0,0,4,1.75,5.75,5.75,0,0,0,2.95-.71,7.41,7.41,0,0,0,2.12-1.88l2,1.56A8,8,0,0,1,967.56,358.87Zm-.41-17.22a4.39,4.39,0,0,0-3.34,1.44,7,7,0,0,0-1.67,4.06h9.63v-.25a6.32,6.32,0,0,0-1.35-3.88A4.16,4.16,0,0,0,967.15,341.65Z"/><path class="a" d="M996.58,353.42a2.41,2.41,0,0,0-1-2.07,9.74,9.74,0,0,0-3.5-1.27,16.28,16.28,0,0,1-4-1.28A5.59,5.59,0,0,1,986,347a4.23,4.23,0,0,1-.71-2.45,5,5,0,0,1,2-4,7.81,7.81,0,0,1,5.11-1.63,8,8,0,0,1,5.3,1.69,5.36,5.36,0,0,1,2,4.31h-3.3a3,3,0,0,0-1.15-2.33,4.27,4.27,0,0,0-2.88-1,4.51,4.51,0,0,0-2.81.78,2.47,2.47,0,0,0-1,2,2,2,0,0,0,.94,1.79,11.43,11.43,0,0,0,3.4,1.16,17.9,17.9,0,0,1,4,1.31,5.76,5.76,0,0,1,2.26,1.84,4.54,4.54,0,0,1,.74,2.62,4.93,4.93,0,0,1-2.06,4.13,8.6,8.6,0,0,1-5.35,1.55,9.74,9.74,0,0,1-4.08-.81,6.71,6.71,0,0,1-2.78-2.29,5.47,5.47,0,0,1-1-3.17h3.28a3.37,3.37,0,0,0,1.33,2.62,5.09,5.09,0,0,0,3.25,1,5.35,5.35,0,0,0,3-.75A2.33,2.33,0,0,0,996.58,353.42Z"/><path class="b" d="M369.24,251.28H340.69v41h-8.37V194h31.92q15.74,0,24.57,7.62t8.84,21.3a26.6,26.6,0,0,1-5.54,16.65,28.24,28.24,0,0,1-14.84,10l24.56,41.84v.88H393Zm-28.55-7h25.44q10.47,0,16.81-5.95t6.34-15.41q0-10.41-6.61-16.15T364.11,201H340.69Z"/><path class="b" d="M413.91,254.65a43,43,0,0,1,4.08-19,30.67,30.67,0,0,1,28.45-17.82q14.56,0,23.61,10.23t9.05,27.09v1.69A43.21,43.21,0,0,1,475,275.94,30.44,30.44,0,0,1,463.51,289a31.56,31.56,0,0,1-16.94,4.59q-14.51,0-23.58-10.23t-9.08-27.09Zm8.1,2.23q0,13.1,6.78,21.49a22.94,22.94,0,0,0,35.49,0q6.8-8.4,6.79-22.17v-1.55A37.16,37.16,0,0,0,468,239.33a25,25,0,0,0-8.7-10.76,22.27,22.27,0,0,0-12.82-3.81,21.59,21.59,0,0,0-17.62,8.47Q422,241.69,422,255.39Z"/><path class="b" d="M503.46,219.22l.27,12.49A28.89,28.89,0,0,1,514,221.42a26.55,26.55,0,0,1,13.56-3.55q11.75,0,17.48,6.62t5.8,19.84v47.91h-8v-48q-.07-9.78-4.15-14.58t-13.06-4.79a20.42,20.42,0,0,0-13.26,4.69,27.53,27.53,0,0,0-8.53,12.65v50h-8v-73Z"/><path class="b" d="M617.77,292.24a38,38,0,0,1-1.55-10.19,28.06,28.06,0,0,1-10.83,8.53,33.07,33.07,0,0,1-13.94,3q-10.51,0-17-5.87a19.15,19.15,0,0,1-6.51-14.85A19.54,19.54,0,0,1,576.78,256q8.87-6.21,24.73-6.21h14.64v-8.3q0-7.83-4.82-12.31t-14.07-4.49q-8.44,0-14,4.32t-5.53,10.39l-8.1-.07q0-8.7,8.1-15.08t19.9-6.38q12.21,0,19.27,6.11t7.25,17v34.55q0,10.59,2.23,15.86v.81Zm-25.37-5.81a27.08,27.08,0,0,0,14.47-3.91,23,23,0,0,0,9.28-10.46V256H601.71q-12.08.13-18.89,4.42T576,272.2a13.06,13.06,0,0,0,4.56,10.19Q585.11,286.42,592.4,286.43Z"/><path class="b" d="M654.75,292.24h-8.1V188.59h8.1Z"/><path class="b" d="M673.44,255.06q0-17,7.6-27.1t20.61-10.09q14.77,0,22.54,11.68v-41h8V292.24h-7.56l-.33-9.72q-7.77,11.07-22.81,11.07a24.35,24.35,0,0,1-20.35-10.16q-7.73-10.15-7.73-27.43Zm8.17,1.41q0,14,5.6,22T703,286.57q14.91,0,21.19-13.16V239.13q-6.27-14.24-21.05-14.24-10.2,0-15.86,8T681.61,256.47Z"/><path class="b" d="M789,292.24V194h29q15.79,0,24,6.52t8.16,19.21A21.75,21.75,0,0,1,846,233a22.69,22.69,0,0,1-11.37,8.07,23.8,23.8,0,0,1,19,23.54q0,13-8.4,20.33t-23.38,7.32Zm8.3-54.19H820q10.38-.2,16.09-4.9t5.7-13.69q0-9.47-5.9-14T818,201H797.27Zm0,7v40.15h24.9q10.67,0,16.91-5.42t6.24-15.06q0-9.09-6-14.38t-16.5-5.29Z"/><path class="b" d="M867.32,254.65a43,43,0,0,1,4.08-19,30.67,30.67,0,0,1,28.45-17.82q14.56,0,23.61,10.23t9,27.09v1.69a43.21,43.21,0,0,1-4.09,19.06A30.44,30.44,0,0,1,916.92,289,31.56,31.56,0,0,1,900,293.59q-14.51,0-23.59-10.23t-9.07-27.09Zm8.1,2.23q0,13.1,6.78,21.49a22.94,22.94,0,0,0,35.49,0q6.79-8.4,6.79-22.17v-1.55a37.16,37.16,0,0,0-3.11-15.32,25,25,0,0,0-8.7-10.76,22.27,22.27,0,0,0-12.82-3.81,21.59,21.59,0,0,0-17.62,8.47q-6.81,8.46-6.81,22.16Z"/><path class="b" d="M992.9,273.68a11.52,11.52,0,0,0-4.82-9.65q-4.83-3.64-14.54-5.7a65.43,65.43,0,0,1-15.09-4.73,20,20,0,0,1-8-6.51,16.25,16.25,0,0,1-2.6-9.31q0-8.64,7.22-14.27t18.49-5.64q12.21,0,19.61,6a19.41,19.41,0,0,1,7.39,15.76h-8.1A13.07,13.07,0,0,0,987.13,229q-5.36-4.26-13.53-4.25-8,0-12.79,3.54a10.94,10.94,0,0,0-4.82,9.21,10,10,0,0,0,4,8.47q4,3,14.65,5.5t15.92,5.33a20.56,20.56,0,0,1,7.87,6.82,18.74,18.74,0,0,1-4.9,24.42q-7.45,5.54-19.47,5.54-12.75,0-20.68-6.18t-7.93-15.62h8.1a14,14,0,0,0,6,11q5.51,4,14.54,3.95,8.45,0,13.64-3.71T992.9,273.68Z"/><path class="c" d="M132.43,350.67a361.9,361.9,0,0,1-18.85-96.05c5.12.24,10.22.36,15.23.36a295.22,295.22,0,0,0,30.88-1.59,304.48,304.48,0,0,0,38.75,25A362.73,362.73,0,0,1,132.43,350.67Z"/><path class="d" d="M158.37,258.1a308.28,308.28,0,0,0,33.46,21.83,362,362,0,0,1-57.22,63,361.43,361.43,0,0,1-16.18-83.53c3.49.11,7,.17,10.38.17,10,0,19.92-.48,29.56-1.43m2.64-9.42a291.12,291.12,0,0,1-32.2,1.76c-6.81,0-13.5-.23-20-.64,2.46,61.53,21.54,108.32,21.54,108.32S171,328.06,205,276.77a301.32,301.32,0,0,1-44-28.09Z"/><path class="c" d="M200.86,106.5a304.55,304.55,0,0,0-38.76-25,361.65,361.65,0,0,1,66-72.28A362.74,362.74,0,0,1,247,105.28c-5.12-.25-10.23-.37-15.24-.37A295.17,295.17,0,0,0,200.86,106.5Z"/><path class="e" d="M226,17a360.48,360.48,0,0,1,16.16,83.54c-3.48-.11-7-.16-10.38-.16-10,0-19.92.48-29.56,1.43A305.84,305.84,0,0,0,168.71,80,361.45,361.45,0,0,1,226,17m4.26-15.22s-40.62,30.07-74.7,81.36a300.7,300.7,0,0,1,44,28.08,291.2,291.2,0,0,1,32.2-1.75q10.23,0,20,.63C249.29,48.56,230.21,1.77,230.21,1.77Z"/><path class="c" d="M85.92,146.46A362.41,362.41,0,0,1,56.34,53.15,362.77,362.77,0,0,1,149,84.86a304.06,304.06,0,0,0-22,40.54A304.73,304.73,0,0,0,85.92,146.46Z"/><path class="f" d="M62,58.92a360.56,360.56,0,0,1,80.43,27.77,307.56,307.56,0,0,0-18.88,35.21A308.42,308.42,0,0,0,87.9,140,361.36,361.36,0,0,1,62,58.92M50.93,47.61S56.66,97.82,84,153a300.75,300.75,0,0,1,46.34-24.08,301.59,301.59,0,0,1,25.13-45.77C101,54.49,50.93,47.61,50.93,47.61Z"/><path class="c" d="M304.2,306.74A362.2,362.2,0,0,1,211.59,275a304.76,304.76,0,0,0,22-40.54,303.55,303.55,0,0,0,41-21.07A362.52,362.52,0,0,1,304.2,306.74Z"/><path class="g" d="M272.64,219.92A362.08,362.08,0,0,1,298.56,301a360.54,360.54,0,0,1-80.43-27.78A307.46,307.46,0,0,0,237,238a307.62,307.62,0,0,0,35.64-18.07m3.87-13A300.75,300.75,0,0,1,230.17,231,301.34,301.34,0,0,1,205,276.77c54.52,28.63,104.58,35.51,104.58,35.51s-5.72-50.21-33.1-105.37Z"/><path class="c" d="M278.29,200.36a305.68,305.68,0,0,0-24.11-39.31A304.17,304.17,0,0,0,256.45,115,362.81,362.81,0,0,1,352,136,362.45,362.45,0,0,1,278.29,200.36Z"/><path class="h" d="M261.08,120A361.47,361.47,0,0,1,344.22,138,362.23,362.23,0,0,1,280,193.79a307.27,307.27,0,0,0-21.06-33.95A306.71,306.71,0,0,0,261.08,120m-9.33-9.86a300.38,300.38,0,0,1-2.32,52.17,301,301,0,0,1,27.08,44.65c52.05-32.89,83-72.81,83-72.81s-46.34-20.14-107.79-24Z"/><path class="c" d="M104.09,244.91a362.5,362.5,0,0,1-95.59-21,362.89,362.89,0,0,1,73.76-64.34,304,304,0,0,0,24.11,39.32A304,304,0,0,0,104.09,244.91Z"/><path class="h" d="M80.58,166.11a309.09,309.09,0,0,0,21,33.95A308.38,308.38,0,0,0,99.46,240a362.16,362.16,0,0,1-83.14-18.08,361.64,361.64,0,0,1,64.26-55.76M84,153C32,185.88,1,225.79,1,225.79s46.34,20.14,107.8,24a301.38,301.38,0,0,1,2.31-52.17A301.21,301.21,0,0,1,84,153Z"/><path class="c" d="M162.34,244a255.05,255.05,0,0,1-24.85-22.19,254.51,254.51,0,0,1-21.62-25.34,247.38,247.38,0,0,1,17.94-64,247,247,0,0,1,64.4-16.47,247.18,247.18,0,0,1,46.47,47.54,253.46,253.46,0,0,1-6.81,32.61,252.26,252.26,0,0,1-11.14,31.39,254.2,254.2,0,0,1-31.64,10.42A252.51,252.51,0,0,1,162.34,244Z"/><path class="i" d="M196.88,120.69a246.62,246.62,0,0,1,22.92,20.62,247.61,247.61,0,0,1,20.1,23.39,245.61,245.61,0,0,1-6.41,30.16,247.8,247.8,0,0,1-10.2,29.1A245.71,245.71,0,0,1,194,233.49a246.53,246.53,0,0,1-30.31,5.72,249.3,249.3,0,0,1-22.91-20.63,247.56,247.56,0,0,1-20.11-23.38,241.51,241.51,0,0,1,16.61-59.27,249.53,249.53,0,0,1,29.33-9.53,246.37,246.37,0,0,1,30.3-5.71m2.65-9.48a251.7,251.7,0,0,0-69.15,17.69,252.1,252.1,0,0,0-19.27,68.73A251.84,251.84,0,0,0,161,248.68a257.48,257.48,0,0,0,35.21-6.38A256.42,256.42,0,0,0,230.17,231a258.26,258.26,0,0,0,12.08-33.68,256.32,256.32,0,0,0,7.18-35.05A255.78,255.78,0,0,0,226.3,135a257.23,257.23,0,0,0-26.77-23.75Z"/><path class="i" d="M201.94,176.4v14.88a10.7,10.7,0,0,1-6.36,9.77v11.63a10.71,10.71,0,0,1-10.7,10.7h-8.69a10.71,10.71,0,0,1-10.7-10.7V201.05a10.71,10.71,0,0,1-6.35-9.77V176.4a14.56,14.56,0,0,1,7.45-12.7,16.72,16.72,0,1,1,27.9,0A14.56,14.56,0,0,1,201.94,176.4Zm-8,0a6.53,6.53,0,0,0-6.82-6.53,16.65,16.65,0,0,1-13.1,0,6.53,6.53,0,0,0-6.83,6.53v14.88a2.68,2.68,0,0,0,2.68,2.67h3.68v18.73a2.67,2.67,0,0,0,2.67,2.67h8.69a2.68,2.68,0,0,0,2.68-2.67V194h3.68a2.68,2.68,0,0,0,2.67-2.67Zm-22.07-21.91a8.7,8.7,0,1,0,8.7-8.69A8.71,8.71,0,0,0,171.84,154.49Z"/></svg>